<svg xmlns="http://www.w3.org/2000/svg" width="256" height="256" viewBox="0 0 256 256">
  <g fill="none" stroke="#243842" stroke-width="14" stroke-linecap="round" stroke-linejoin="round">
    <!-- listening sound waves entering the ear (amber) -->
    <path d="M64 96 C 44 116 44 150 64 170" stroke="#E8A33D" stroke-width="9"/>
    <path d="M40 80 C 8 112 8 154 40 186" stroke="#E8A33D" stroke-width="9" opacity="0.6"/>
    <!-- outer ear (cream fill, ink outline) -->
    <path d="M126 44
             C 158 34 192 50 196 88
             C 200 122 190 150 178 172
             C 166 196 150 212 126 210
             C 104 208 92 190 96 168
             C 78 172 64 150 70 120
             C 74 92 96 54 126 44 Z"
          fill="#FFFCF6"/>
    <!-- inner concha curl -->
    <path d="M156 150 C 120 166 92 146 100 114 C 106 92 140 86 156 106"/>
  </g>
  <!-- the amber freckle: the same slipped dot as the wordmark -->
  <circle cx="150" cy="186" r="13" fill="#E8A33D"/>
</svg>
