<svg xmlns="http://www.w3.org/2000/svg" width="1013" height="675" viewBox="0 0 1634 1088">
<g transform="translate(37.0,808.0) scale(1,-1)">
  <path transform="translate(0.0,0)" d="M220.75 -17Q194 -17 162.25 -11.0Q130.5 -5 100.75 6.5Q71 18 50.75 33.625Q30.5 49.25 27.75 69.25Q26 79.25 28.625 90.375Q31.25 101.5 37.875 114.25Q44.5 127 55.25 141Q63.25 151.5 72.875 154.75Q82.5 158 96.25 153.75Q112 151.25 128.25 143.5Q144.5 135.75 161.25 127.125Q178 118.5 195.875 112.125Q213.75 105.75 233 105.75Q261 105.75 276.625 114.125Q292.25 122.5 292.25 137.75Q292.25 148.5 285.625 155.875Q279 163.25 267.375 168.375Q255.75 173.5 240.625 177.625Q225.5 181.75 208.125 186.125Q190.75 190.5 172.5 196.25Q148.25 203.25 124.875 214.0Q101.5 224.75 82.875 242.25Q64.25 259.75 53.0 285.25Q41.75 310.75 41.75 348.25Q41.75 396.75 64.625 430.0Q87.5 463.25 131.5 480.75Q175.5 498.25 238.75 498.25Q257.25 498.25 275.0 495.875Q292.75 493.5 310.25 488.75Q327.75 484 344.75 476.75Q361.75 469.5 378.5 460.25Q409.25 445.5 410.25 421.875Q411.25 398.25 392.75 372.5Q381.5 355.75 369.625 348.25Q357.75 340.75 345.25 343.5Q329.25 347.5 310.625 356.625Q292 365.75 271.625 373.75Q251.25 381.75 230.5 381.75Q214.25 381.75 202.125 377.5Q190 373.25 183.875 365.5Q177.75 357.75 177.75 347.5Q177.75 335 185.5 327.25Q193.25 319.5 206.125 314.5Q219 309.5 236.125 305.75Q253.25 302 272.75 298.25Q299.75 293.25 328.125 284.5Q356.5 275.75 380.125 259.875Q403.75 244 418.25 216.75Q432.75 189.5 432.75 145.75Q432.75 67 377.75 25.0Q322.75 -17 220.75 -17Z" fill="#243842"/>
  <path transform="translate(464.0,0)" d="M233 -9.5Q191.5 -9.5 160.0 -5.0Q128.5 -0.5 106.25 11.5Q84 23.5 69.875 44.875Q55.75 66.25 49.125 99.625Q42.5 133 42.5 181.5V643.75Q42.5 664 46.125 681.0Q49.75 698 65.625 708.875Q81.5 719.75 117.75 719.75Q154.25 719.75 169.75 709.0Q185.25 698.25 189.0 681.0Q192.75 663.75 192.75 643.75V189.25Q192.75 172.5 194.375 162.0Q196 151.5 200.5 145.625Q205 139.75 213.0 138.0Q221 136.25 233.5 136.25Q246.25 136.25 258.75 133.0Q271.25 129.75 279.875 115.0Q288.5 100.25 288.5 65.25Q288.5 28.75 279.875 12.875Q271.25 -3 258.375 -6.25Q245.5 -9.5 233 -9.5Z" fill="#243842"/>
  <path transform="translate(771.0,0)" d="M111.75 -9.5Q75.5 -9.5 59.625 1.375Q43.75 12.25 40.5 29.625Q37.25 47 37.25 66.25V415.25Q37.25 434.5 40.875 451.5Q44.5 468.5 60.375 479.25Q76.25 490 112.75 490Q149.25 490 164.625 479.125Q180 468.25 183.625 450.875Q187.25 433.5 187.25 413.25V65.25Q187.25 46 183.625 28.625Q180 11.25 164.5 0.875Q149 -9.5 111.75 -9.5Z" fill="#243842"/>
  <path transform="translate(1002.0,0)" d="M302.5 0Q253.5 0 216.25 19.25Q179 38.5 154.25 72.375Q129.5 106.25 117.125 150.25Q104.75 194.25 105.5 244.5Q106.25 294 119.0 338.625Q131.75 383.25 156.5 417.375Q181.25 451.5 217.75 471.125Q254.25 490.75 302.5 490.75Q347.25 490.75 388.375 470.75Q429.5 450.75 461.75 416.125Q494 381.5 512.5 336.625Q531 291.75 531 242.25Q531 191.5 512.5 147.25Q494 103 462.125 70.0Q430.25 37 389.125 18.5Q348 0 302.5 0ZM110 -216.25Q74.25 -216.25 58.375 -205.75Q42.5 -195.25 39.125 -178.625Q35.75 -162 35.75 -142.75V416.25Q35.75 435.75 39.0 452.375Q42.25 469 57.75 479.875Q73.25 490.75 109 490.75Q139.5 490.75 158.375 482.0Q177.25 473.25 184.75 454V-141.75Q186.25 -161 182.25 -178.125Q178.25 -195.25 162.375 -205.75Q146.5 -216.25 110 -216.25ZM282.25 140.75Q309.75 140.75 332.0 154.125Q354.25 167.5 367.5 190.5Q380.75 213.5 380.75 241.5Q380.75 270.5 367.875 293.25Q355 316 332.75 328.875Q310.5 341.75 283 341.75Q255.75 341.75 233.5 328.375Q211.25 315 198.375 292.625Q185.5 270.25 185.5 241.5Q185.5 213.5 198.75 190.5Q212 167.5 233.875 154.125Q255.75 140.75 282.25 140.75Z" fill="#243842"/>
  <circle cx="941.2" cy="662.0" r="82.0" fill="#E8A33D"/>
</g></svg>